<svg width="117" height="219" viewBox="0 0 117 219" fill="none" xmlns="http://www.w3.org/2000/svg">
<g filter="url(#filter0_d_6_55)">
<path d="M50.125 24.0625L52.375 24.9375C50.125 28.4375 48.6875 31.125 48.0625 33C47.4792 34.8333 47.1875 37.3333 47.1875 40.5V67.125C47.1875 71.5417 47.5208 74.3125 48.1875 75.4375C48.8958 76.5208 49.7292 77.0625 50.6875 77.0625C51.1875 77.0625 51.7083 76.9375 52.25 76.6875C52.5833 76.4792 53.5625 75.7292 55.1875 74.4375L56.5625 76.5L42.625 88C39.4167 85.5 37.2708 83.2708 36.1875 81.3125C35.1042 79.3125 34.5 76.5417 34.375 73L15.375 88C8.25 82.1667 4.6875 76.4167 4.6875 70.75C4.6875 66.9583 5.45833 63.3958 7 60.0625C9.04167 55.6875 12.5625 50.5833 17.5625 44.75L10.0625 28.75L10.9375 27C12.5625 27.1667 13.7708 27.25 14.5625 27.25C19.4792 27.25 23.8125 25.2917 27.5625 21.375C30.6042 23.1667 33.9167 24.6042 37.5 25.6875C41.125 26.7708 43.8958 27.3125 45.8125 27.3125C46.6875 27.3125 47.3542 27.1667 47.8125 26.875C48.2708 26.5417 49.0417 25.6042 50.125 24.0625ZM34.375 36L13 29.4375L20.625 45.5625L34.375 52V36ZM34.375 54.5625L19.25 47.5C16.9167 52.5833 15.75 57.0417 15.75 60.875C15.75 67.625 18.8125 73.1875 24.9375 77.5625L34.375 69.9375V54.5625ZM61.75 0.0625L104.188 29.25C104.854 27.7083 105.583 26.5417 106.375 25.75C107.208 24.9583 108.458 24.2083 110.125 23.5V26.0625C109.292 27.1875 108.75 28.2083 108.5 29.125C108.25 30.0417 108.125 31.9167 108.125 34.75V76.8125C102.833 78.8125 98.8958 80.5625 96.3125 82.0625C93.7292 83.5208 90.9375 85.5 87.9375 88C83.0208 84.7917 78.6667 82.4583 74.875 81C71.0833 79.5417 67 78.5417 62.625 78V76.8125C64.125 75.5208 65.0833 74.2292 65.5 72.9375C65.9583 71.6042 66.1875 68.875 66.1875 64.75V32C71.8958 30.4167 75.9375 28.625 78.3125 26.625L61.75 15.3125V0.0625ZM95.375 38.3125L82.5625 29.4375C81.3958 30.3958 80.2083 31.2292 79 31.9375V70.5625L95.375 77.8125V38.3125ZM39.8125 149.375L50.0625 158.938L56.125 153.062L57.875 154.75C54.9583 157.417 53.1875 159.438 52.5625 160.812C51.7292 162.646 51.3125 165.167 51.3125 168.375V198.062C51.3125 200.812 51.75 202.854 52.625 204.188C53.1667 205.062 53.7708 205.5 54.4375 205.5C55.0208 205.5 56.3958 204.688 58.5625 203.062L60.0625 205L46.625 216C43.1667 213.375 40.9375 211.062 39.9375 209.062C38.9792 207.021 38.5 203.75 38.5 199.25V164.812L31.6875 158.938L21.5625 167V202.562L26.0625 207.062L15 216L3.875 207.062L8.75 202.562V170.625C8.75 166.083 8.29167 163.021 7.375 161.438C6.75 160.354 6.04167 159.812 5.25 159.812C4.41667 159.812 3.16667 160.458 1.5 161.75L0 160L13.3125 149.375C16.9792 151.958 19.2708 154 20.1875 155.5C21.1042 157 21.5625 159.083 21.5625 161.75V163.875L39.8125 149.375ZM65.6875 128.062L108.125 157.25C108.792 155.708 109.521 154.542 110.312 153.75C111.146 152.958 112.396 152.208 114.062 151.5V154.062C113.229 155.188 112.688 156.208 112.438 157.125C112.188 158.042 112.062 159.917 112.062 162.75V204.812C106.771 206.812 102.833 208.562 100.25 210.062C97.6667 211.521 94.875 213.5 91.875 216C86.9583 212.792 82.6042 210.458 78.8125 209C75.0208 207.542 70.9375 206.542 66.5625 206V204.812C68.0625 203.521 69.0208 202.229 69.4375 200.938C69.8958 199.604 70.125 196.875 70.125 192.75V160C75.8333 158.417 79.875 156.625 82.25 154.625L65.6875 143.312V128.062ZM99.3125 166.312L86.5 157.438C85.3333 158.396 84.1458 159.229 82.9375 159.938V198.562L99.3125 205.812V166.312Z" fill="black"/>
</g>
<defs>
<filter id="filter0_d_6_55" x="0" y="0.0625" width="116.906" height="218.781" filterUnits="userSpaceOnUse" color-interpolation-filters="sRGB">
<feFlood flood-opacity="0" result="BackgroundImageFix"/>
<feColorMatrix in="SourceAlpha" type="matrix" values="0 0 0 0 0 0 0 0 0 0 0 0 0 0 0 0 0 0 127 0" result="hardAlpha"/>
<feOffset dx="2.84375" dy="2.84375"/>
<feComposite in2="hardAlpha" operator="out"/>
<feColorMatrix type="matrix" values="0 0 0 0 0.338677 0 0 0 0 0.0960938 0 0 0 0 0.854167 0 0 0 0.7 0"/>
<feBlend mode="normal" in2="BackgroundImageFix" result="effect1_dropShadow_6_55"/>
<feBlend mode="normal" in="SourceGraphic" in2="effect1_dropShadow_6_55" result="shape"/>
</filter>
</defs>
</svg>
