<svg width="777" height="125" viewBox="0 0 777 125" fill="none" xmlns="http://www.w3.org/2000/svg">
<g filter="url(#filter0_d_0_758)">
<path d="M10.4606 117.403H0.13159L72.4344 1.55941H82.8429L10.4606 117.403ZM149.346 30.7189L152.206 31.8313C149.346 36.2807 147.518 39.6972 146.724 42.0808C145.982 44.4114 145.611 47.5896 145.611 51.6152V85.4625C145.611 91.0772 146.035 94.5996 146.883 96.0298C147.783 97.407 148.842 98.0956 150.061 98.0956C150.696 98.0956 151.358 97.9367 152.047 97.6189C152.471 97.354 153.716 96.4006 155.781 94.7586L157.529 97.3805L139.811 112C135.733 108.822 133.005 105.988 131.627 103.498C130.25 100.956 129.482 97.4335 129.323 92.9311L105.169 112C96.1116 104.584 91.5828 97.2746 91.5828 90.0708C91.5828 85.2506 92.5627 80.7217 94.5225 76.4842C97.118 70.9225 101.594 64.4337 107.95 57.0181L98.4158 36.6779L99.5281 34.4532C101.594 34.6651 103.13 34.771 104.136 34.771C110.387 34.771 115.896 32.2815 120.663 27.3024C124.53 29.5801 128.741 31.4075 133.296 32.7847C137.904 34.1619 141.427 34.8505 143.863 34.8505C144.976 34.8505 145.823 34.6651 146.406 34.2943C146.988 33.8706 147.968 32.6788 149.346 30.7189ZM129.323 45.8946L102.15 37.5519L111.843 58.051L129.323 66.2347V45.8946ZM129.323 69.4923L110.095 60.514C107.129 66.9763 105.646 72.644 105.646 77.5171C105.646 86.0981 109.539 93.1695 117.326 98.7312L129.323 89.0379V69.4923ZM164.124 0.208698L218.073 37.3136C218.92 35.3537 219.847 33.8706 220.854 32.8642C221.913 31.8577 223.502 30.9043 225.621 30.0038V33.2614C224.562 34.6916 223.873 35.9893 223.555 37.1547C223.237 38.32 223.079 40.7036 223.079 44.3055V97.7778C216.351 100.32 211.346 102.545 208.062 104.452C204.778 106.306 201.229 108.822 197.415 112C191.165 107.921 185.629 104.955 180.809 103.101C175.989 101.247 170.798 99.976 165.236 99.2874V97.7778C167.143 96.1358 168.361 94.4937 168.891 92.8517C169.474 91.1567 169.765 87.6872 169.765 82.4432V40.8095C177.022 38.7967 182.16 36.519 185.179 33.9765L164.124 19.5954V0.208698ZM206.87 48.8343L190.582 37.5519C189.099 38.7702 187.589 39.8296 186.053 40.7301V89.8324L206.87 99.0491V48.8343ZM295.222 30.7189L298.083 31.8313C295.222 36.2807 293.395 39.6972 292.601 42.0808C291.859 44.4114 291.488 47.5896 291.488 51.6152V85.4625C291.488 91.0772 291.912 94.5996 292.759 96.0298C293.66 97.407 294.719 98.0956 295.938 98.0956C296.573 98.0956 297.235 97.9367 297.924 97.6189C298.348 97.354 299.592 96.4006 301.658 94.7586L303.406 97.3805L285.688 112C281.609 108.822 278.882 105.988 277.504 103.498C276.127 100.956 275.359 97.4335 275.2 92.9311L251.046 112C241.989 104.584 237.46 97.2746 237.46 90.0708C237.46 85.2506 238.44 80.7217 240.399 76.4842C242.995 70.9225 247.471 64.4337 253.827 57.0181L244.293 36.6779L245.405 34.4532C247.471 34.6651 249.007 34.771 250.013 34.771C256.264 34.771 261.772 32.2815 266.54 27.3024C270.406 29.5801 274.618 31.4075 279.173 32.7847C283.781 34.1619 287.304 34.8505 289.74 34.8505C290.853 34.8505 291.7 34.6651 292.283 34.2943C292.865 33.8706 293.845 32.6788 295.222 30.7189ZM275.2 45.8946L248.027 37.5519L257.72 58.051L275.2 66.2347V45.8946ZM275.2 69.4923L255.972 60.514C253.006 66.9763 251.523 72.644 251.523 77.5171C251.523 86.0981 255.416 93.1695 263.203 98.7312L275.2 89.0379V69.4923ZM360.057 27.3024L373.087 39.4588L380.794 31.9902L383.019 34.1354C379.311 37.5254 377.06 40.0944 376.265 41.8424C375.206 44.1731 374.676 47.3777 374.676 51.4563V89.1968C374.676 92.6928 375.232 95.2882 376.345 96.9833C377.033 98.0956 377.801 98.6518 378.649 98.6518C379.39 98.6518 381.138 97.6189 383.893 95.5531L385.8 98.0162L368.717 112C364.321 108.663 361.487 105.723 360.216 103.181C358.997 100.585 358.388 96.4271 358.388 90.7064V46.9275L349.728 39.4588L336.856 49.7083V94.9175L342.577 100.638L328.514 112L314.371 100.638L320.568 94.9175V54.3166C320.568 48.543 319.986 44.6498 318.82 42.637C318.026 41.2598 317.125 40.5712 316.119 40.5712C315.059 40.5712 313.47 41.3922 311.352 43.0342L309.445 40.8095L326.368 27.3024C331.03 30.5865 333.943 33.182 335.108 35.0889C336.274 36.9957 336.856 39.6442 336.856 43.0342V45.7356L360.057 27.3024ZM428.864 27.3024L451.269 53.4427L415.674 78.3911V92.8517L434.107 100.161L446.582 91.6599L448.33 94.0435L422.587 112C417.343 109.193 413.026 107.18 409.636 105.962C406.246 104.743 401.426 103.472 395.175 102.148V100.161C396.976 99.102 398.168 97.8043 398.751 96.2682C399.386 94.6791 399.704 91.2891 399.704 86.0981V40.6506C404.683 38.8497 408.815 37.2076 412.099 35.7245C414.482 34.6121 420.071 31.8048 428.864 27.3024ZM416.787 36.4396L415.674 36.9957V72.9883L436.571 58.3688L416.787 36.4396ZM457.467 0.208698L511.416 37.3136C512.263 35.3537 513.19 33.8706 514.197 32.8642C515.256 31.8577 516.845 30.9043 518.964 30.0038V33.2614C517.905 34.6916 517.216 35.9893 516.898 37.1547C516.58 38.32 516.421 40.7036 516.421 44.3055V97.7778C509.694 100.32 504.689 102.545 501.405 104.452C498.121 106.306 494.572 108.822 490.758 112C484.508 107.921 478.972 104.955 474.152 103.101C469.332 101.247 464.141 99.976 458.579 99.2874V97.7778C460.486 96.1358 461.704 94.4937 462.234 92.8517C462.817 91.1567 463.108 87.6872 463.108 82.4432V40.8095C470.365 38.7967 475.503 36.519 478.522 33.9765L457.467 19.5954V0.208698ZM500.213 48.8343L483.925 37.5519C482.442 38.7702 480.932 39.8296 479.396 40.7301V89.8324L500.213 99.0491V48.8343ZM566.318 27.3024L588.724 53.4427L553.129 78.3911V92.8517L571.562 100.161L584.037 91.6599L585.785 94.0435L560.042 112C554.798 109.193 550.481 107.18 547.091 105.962C543.701 104.743 538.88 103.472 532.63 102.148V100.161C534.431 99.102 535.623 97.8043 536.205 96.2682C536.841 94.6791 537.159 91.2891 537.159 86.0981V40.6506C542.138 38.8497 546.27 37.2076 549.554 35.7245C551.937 34.6121 557.526 31.8048 566.318 27.3024ZM554.241 36.4396L553.129 36.9957V72.9883L574.025 58.3688L554.241 36.4396ZM605.251 117.403H594.922L667.225 1.55941H677.633L605.251 117.403ZM696.305 117.403H685.976L758.278 1.55941H768.687L696.305 117.403Z" fill="black"/>
</g>
<defs>
<filter id="filter0_d_0_758" x="0.131592" y="0.20874" width="776.055" height="124.694" filterUnits="userSpaceOnUse" color-interpolation-filters="sRGB">
<feFlood flood-opacity="0" result="BackgroundImageFix"/>
<feColorMatrix in="SourceAlpha" type="matrix" values="0 0 0 0 0 0 0 0 0 0 0 0 0 0 0 0 0 0 127 0" result="hardAlpha"/>
<feOffset dx="7.5" dy="7.5"/>
<feComposite in2="hardAlpha" operator="out"/>
<feColorMatrix type="matrix" values="0 0 0 0 0.338677 0 0 0 0 0.0960938 0 0 0 0 0.854167 0 0 0 0.7 0"/>
<feBlend mode="normal" in2="BackgroundImageFix" result="effect1_dropShadow_0_758"/>
<feBlend mode="normal" in="SourceGraphic" in2="effect1_dropShadow_0_758" result="shape"/>
</filter>
</defs>
</svg>
