<svg width="847" height="113" viewBox="0 0 847 113" fill="none" xmlns="http://www.w3.org/2000/svg">
<g filter="url(#filter0_d_0_156)">
<path d="M8.375 92.25H0.25L57.125 1.125H65.3125L8.375 92.25ZM93.25 21.375L109.5 30.625L102.875 40.4375L90.625 33.375V73.1875L102.875 78.75L109.5 74.0625L110.125 76.6875L94.625 88C90.625 85.75 87.2083 84.1042 84.375 83.0625C81.5417 81.9792 78.0625 81.0417 73.9375 80.25V78.75C75.3958 77.75 76.3542 76.6667 76.8125 75.5C77.4792 73.875 77.8125 71.3333 77.8125 67.875V32.3125C83.0208 29.9375 88.1667 26.2917 93.25 21.375ZM160.875 30.5V77.25C154.625 79.7917 150.104 81.875 147.312 83.5C145.188 84.7083 143.146 86.2083 141.188 88C135.146 84.3333 130.146 81.7917 126.188 80.375C123.188 79.2917 119.792 78.6667 116 78.5L115.375 77.25C116.958 75.9167 117.958 74.7083 118.375 73.625C118.958 72.2083 119.25 69.8125 119.25 66.4375V32.125C126.875 29.5833 133.396 26 138.812 21.375C144.729 25.2917 152.083 28.3333 160.875 30.5ZM131.875 71.1875L148.188 77.875V38.125C143.062 35.75 139.438 34.1875 137.312 33.4375C135.812 32.8958 134 32.4375 131.875 32.0625V71.1875ZM255.625 25L257.438 26.6875C255.062 28.7708 253.458 30.4375 252.625 31.6875C251.833 32.9375 251.312 34.1875 251.062 35.4375C250.812 36.6875 250.688 39.25 250.688 43.125V69.125C250.688 72.5417 251.042 74.8125 251.75 75.9375C252.458 77.0625 253.125 77.625 253.75 77.625C254.625 77.625 256.146 76.7917 258.312 75.125L259.75 76.9375L245.875 88C242.792 85.5833 240.792 83.5833 239.875 82C238.542 79.6667 237.875 77.1875 237.875 74.5625V36.875L231.562 31.4375L221.562 40.6875V74.5625L226.312 79.625L215.375 88L204.312 79.625L208.875 74.5625V43.5C208.875 39.875 208.604 37.5417 208.062 36.5C207.312 35.0833 205.5 33.3958 202.625 31.4375L192.75 39.75V74.5625L197.562 79.625L186.562 88L175.375 79.625L180.25 74.5625V41.125C180.25 37.6667 179.771 35.1667 178.812 33.625C178.062 32.4583 177.375 31.875 176.75 31.875C176 31.875 174.479 32.7292 172.188 34.4375L170.812 32.375L184.438 21.375C187.271 23.375 189.188 25.0208 190.188 26.3125C191.229 27.5625 191.958 28.9375 192.375 30.4375C192.625 31.5208 192.75 33.6667 192.75 36.875L211.375 21.375C215.458 24.625 218.125 27.3125 219.375 29.4375C220.625 31.5625 221.354 34.2708 221.562 37.5625L239.125 21.375L249.375 30.9375L255.625 25ZM282.938 0H290.875L282.25 13.5H279.75L282.938 0ZM278.188 21.375L289.312 30.5625L284.375 35.375V69.375C284.375 72.9583 284.708 75.2917 285.375 76.375C286.042 77.4583 286.729 78 287.438 78C287.938 78 288.396 77.8958 288.812 77.6875C289.396 77.3958 290.604 76.5625 292.438 75.1875L293.938 77.125L279.75 88C276.417 85.625 274.271 83.3958 273.312 81.3125C272.354 79.1875 271.875 75.5 271.875 70.25V35.375L267.188 30.5625L278.188 21.375ZM340.625 21.375L350.875 30.9375L356.938 25.0625L358.688 26.75C355.771 29.4167 354 31.4375 353.375 32.8125C352.542 34.6458 352.125 37.1667 352.125 40.375V70.0625C352.125 72.8125 352.562 74.8542 353.438 76.1875C353.979 77.0625 354.583 77.5 355.25 77.5C355.833 77.5 357.208 76.6875 359.375 75.0625L360.875 77L347.438 88C343.979 85.375 341.75 83.0625 340.75 81.0625C339.792 79.0208 339.312 75.75 339.312 71.25V36.8125L332.5 30.9375L322.375 39V74.5625L326.875 79.0625L315.812 88L304.688 79.0625L309.562 74.5625V42.625C309.562 38.0833 309.104 35.0208 308.188 33.4375C307.562 32.3542 306.854 31.8125 306.062 31.8125C305.229 31.8125 303.979 32.4583 302.312 33.75L300.812 32L314.125 21.375C317.792 23.9583 320.083 26 321 27.5C321.917 29 322.375 31.0833 322.375 33.75V35.875L340.625 21.375ZM395.062 21.375L414.5 30.5L426.125 24.625V38.6875L414.875 36.5V64.875C414.875 69.4583 415.146 72.5625 415.688 74.1875C416.396 76.3125 417.875 78.7708 420.125 81.5625C423.75 86.1875 425.562 89.5 425.562 91.5C425.562 93.5 424.604 95.4167 422.688 97.25C420.812 99.0833 415.771 101.917 407.562 105.75C404.771 104.75 402.104 104 399.562 103.5C397.021 103.042 394.604 102.812 392.312 102.812C386.812 102.812 380.458 103.792 373.25 105.75L372.375 103.625L387.125 86.375L372.375 75.75V30.5C380.625 28.75 388.188 25.7083 395.062 21.375ZM402.188 36.375L385.062 30.5V71.4375L394.375 78.1875L402.188 68.8125V36.375ZM383.375 94.4375C388.792 93.5625 393.167 93.125 396.5 93.125C399.5 93.125 402.521 93.5208 405.562 94.3125C408.646 95.1042 411.75 96.3125 414.875 97.9375L417.438 96.3125C411.812 91.0625 408 86.8125 406 83.5625C404 80.3125 402.729 76.7708 402.188 72.9375L383.375 94.4375ZM498.062 44.5625L512.5 52.125V78.4375C509 78.7708 505.833 79.625 503 81C500.167 82.375 496.958 84.7083 493.375 88C490.292 86.1667 487.604 84.8958 485.312 84.1875C483.062 83.4792 480.667 83.125 478.125 83.125C474.208 83.125 470.729 84.3125 467.688 86.6875C466.562 87.5625 465.75 88 465.25 88C464.792 88 464.333 87.7708 463.875 87.3125C463.417 86.8542 463.188 86.3958 463.188 85.9375C463.188 85.4375 463.625 84.7708 464.5 83.9375C465 83.4375 465.854 82.4792 467.062 81.0625L472.75 74L480.812 63.3125L467.125 55.9375V32.625C471.417 31.2917 474.771 29.8125 477.188 28.1875C479.646 26.5208 482 24.25 484.25 21.375C489.583 23.625 493.875 25.2083 497.125 26.125C499.458 26.75 501.688 27.0625 503.812 27.0625C506.146 27.0625 507.958 26.5625 509.25 25.5625C510.542 24.5208 511.188 23.4375 511.188 22.3125C511.188 21.5625 510.771 20.8125 509.938 20.0625C508.312 18.6042 507.5 17.1875 507.5 15.8125C507.5 14.5208 507.854 13.5 508.562 12.75C509.271 11.9583 510.062 11.5625 510.938 11.5625C512.104 11.5625 513.146 12.1042 514.062 13.1875C515.021 14.2292 515.5 15.625 515.5 17.375C515.5 19.1667 515.125 20.9167 514.375 22.625C513.625 24.3333 512.188 26.5417 510.062 29.25L498.062 44.5625ZM479.75 48.875L488.312 53.3125L501.938 35.1875C499.146 35.9792 496.729 36.375 494.688 36.375C489.562 36.375 484.583 34.6667 479.75 31.25V48.875ZM490.5 54.5625L475.438 74.75C477.271 74.125 478.979 73.6667 480.562 73.375C482.146 73.0833 483.583 72.9375 484.875 72.9375C489.667 72.9375 494.646 74.5208 499.812 77.6875V59.5625L490.5 54.5625ZM568.75 30.5V77.25C562.5 79.7917 557.979 81.875 555.188 83.5C553.062 84.7083 551.021 86.2083 549.062 88C543.021 84.3333 538.021 81.7917 534.062 80.375C531.062 79.2917 527.667 78.6667 523.875 78.5L523.25 77.25C524.833 75.9167 525.833 74.7083 526.25 73.625C526.833 72.2083 527.125 69.8125 527.125 66.4375V32.125C534.75 29.5833 541.271 26 546.688 21.375C552.604 25.2917 559.958 28.3333 568.75 30.5ZM539.75 71.1875L556.062 77.875V38.125C550.938 35.75 547.312 34.1875 545.188 33.4375C543.688 32.8958 541.875 32.4375 539.75 32.0625V71.1875ZM626.125 30.5V77.25C619.875 79.7917 615.354 81.875 612.562 83.5C610.438 84.7083 608.396 86.2083 606.438 88C600.396 84.3333 595.396 81.7917 591.438 80.375C588.438 79.2917 585.042 78.6667 581.25 78.5L580.625 77.25C582.208 75.9167 583.208 74.7083 583.625 73.625C584.208 72.2083 584.5 69.8125 584.5 66.4375V32.125C592.125 29.5833 598.646 26 604.062 21.375C609.979 25.2917 617.333 28.3333 626.125 30.5ZM597.125 71.1875L613.438 77.875V38.125C608.312 35.75 604.688 34.1875 602.562 33.4375C601.062 32.8958 599.25 32.4375 597.125 32.0625V71.1875ZM676.5 21.375L686.75 30.9375L692.812 25.0625L694.562 26.75C691.646 29.4167 689.875 31.4375 689.25 32.8125C688.417 34.6458 688 37.1667 688 40.375V70.0625C688 72.8125 688.438 74.8542 689.312 76.1875C689.854 77.0625 690.458 77.5 691.125 77.5C691.708 77.5 693.083 76.6875 695.25 75.0625L696.75 77L683.312 88C679.854 85.375 677.625 83.0625 676.625 81.0625C675.667 79.0208 675.188 75.75 675.188 71.25V36.8125L668.375 30.9375L658.25 39V74.5625L662.75 79.0625L651.688 88L640.562 79.0625L645.438 74.5625V42.625C645.438 38.0833 644.979 35.0208 644.062 33.4375C643.438 32.3542 642.729 31.8125 641.938 31.8125C641.104 31.8125 639.854 32.4583 638.188 33.75L636.688 32L650 21.375C653.667 23.9583 655.958 26 656.875 27.5C657.792 29 658.25 31.0833 658.25 33.75V35.875L676.5 21.375ZM710.5 92.25H702.375L759.25 1.125H767.438L710.5 92.25ZM782.125 92.25H774L830.875 1.125H839.062L782.125 92.25Z" fill="black"/>
</g>
<defs>
<filter id="filter0_d_0_156" x="0.25" y="0" width="845.812" height="112.75" filterUnits="userSpaceOnUse" color-interpolation-filters="sRGB">
<feFlood flood-opacity="0" result="BackgroundImageFix"/>
<feColorMatrix in="SourceAlpha" type="matrix" values="0 0 0 0 0 0 0 0 0 0 0 0 0 0 0 0 0 0 127 0" result="hardAlpha"/>
<feOffset dx="7" dy="7"/>
<feComposite in2="hardAlpha" operator="out"/>
<feColorMatrix type="matrix" values="0 0 0 0 0.338677 0 0 0 0 0.0960938 0 0 0 0 0.854167 0 0 0 0.7 0"/>
<feBlend mode="normal" in2="BackgroundImageFix" result="effect1_dropShadow_0_156"/>
<feBlend mode="normal" in="SourceGraphic" in2="effect1_dropShadow_0_156" result="shape"/>
</filter>
</defs>
</svg>
