 <svg width="122" height="364" viewBox="0 0 122 364" fill="none" xmlns="http://www.w3.org/2000/svg">
<path fill-rule="evenodd" clip-rule="evenodd" d="M0.717773 363.786H121.718V348.444C115.461 351.442 108.454 353.12 101.055 353.12C86.4761 353.12 73.4176 346.603 64.6266 336.318C55.8356 346.603 42.7771 353.12 28.1984 353.12C17.9748 353.12 8.49873 349.915 0.717773 344.453V363.786ZM28.1984 352.186C42.5487 352.186 55.3975 345.745 64.0182 335.592C63.4566 334.908 62.9134 334.209 62.3896 333.494H30.9678V324.376C30.0594 324.482 29.1352 324.537 28.1983 324.537C15.1389 324.537 4.55222 313.935 4.55222 300.857C4.55222 295.189 6.54063 289.987 9.85697 285.911C6.61591 284.565 3.55422 282.874 0.717773 280.883V343.306C8.44615 348.894 17.9385 352.186 28.1984 352.186ZM0.717773 279.736C3.72799 281.913 7.00582 283.741 10.4924 285.162C14.8245 280.265 21.1514 277.178 28.1983 277.178C29.1352 277.178 30.0594 277.232 30.9678 277.338V267.885C24.4393 266.059 18.1267 263.714 12.077 260.899C7.99631 262.391 4.18003 264.434 0.717773 266.937V279.736ZM10.7655 286.277C7.4699 290.225 5.48625 295.309 5.48625 300.857C5.48625 313.42 15.656 323.603 28.1983 323.603C29.1358 323.603 30.0601 323.546 30.9678 323.435V289.472C30.0513 289.524 29.1279 289.55 28.1984 289.55C22.0481 289.55 16.1684 288.39 10.7655 286.277ZM68.4061 217.17H60.8471C61.9838 215.295 63.2476 213.505 64.6266 211.813C66.0056 213.505 67.2695 215.295 68.4061 217.17ZM69.4945 217.17H73.3733C76.0929 212.079 80.6165 208.1 86.0887 206.088C82.0878 205.402 78.2562 204.219 74.6594 202.605C71.1485 204.996 67.9778 207.851 65.235 211.081C66.8051 212.993 68.2305 215.028 69.4945 217.17ZM64.6266 210.355C67.2792 207.252 70.3203 204.492 73.6744 202.15C70.9581 200.856 68.3827 199.314 65.9772 197.553C63.3197 199.807 60.4138 201.776 57.3063 203.414C59.9828 205.466 62.4371 207.794 64.6266 210.355ZM64.0182 211.081C61.7498 208.41 59.1887 205.995 56.3846 203.887C53.2313 205.463 49.8803 206.7 46.3788 207.553C50.4023 209.765 53.7134 213.115 55.8799 217.17H59.7588C61.0227 215.028 62.4481 212.993 64.0182 211.081ZM56.4772 202.793C59.6086 201.18 62.5357 199.226 65.2093 196.979C64.6565 196.557 64.1131 196.123 63.5796 195.678C58.2787 195.587 53.1875 194.635 48.4396 192.955C47.288 194.096 46.2576 195.36 45.3696 196.725C49.3558 198.257 53.0857 200.307 56.4772 202.793ZM44.8675 197.533C48.6865 198.984 52.2675 200.919 55.536 203.264C52.2484 204.864 48.7467 206.092 45.0854 206.893C44.0801 206.418 43.0361 206.013 41.9594 205.682C42.4049 202.743 43.412 199.989 44.8675 197.533ZM44.4737 196.391C45.3445 195.026 46.3512 193.757 47.4747 192.602C43.635 191.149 40.0305 189.217 36.7339 186.878H31.1625C28.8851 187.609 26.4575 188.003 23.9377 188.003C23.43 188.003 22.9259 187.987 22.4261 187.956C21.4033 189.986 20.523 192.101 19.7985 194.287C22.5258 193.805 25.3327 193.553 28.1984 193.553C33.9121 193.553 39.3923 194.554 44.4737 196.391ZM19.4769 195.296C22.3031 194.765 25.2184 194.487 28.1984 194.487C33.7334 194.487 39.045 195.445 43.9768 197.205C42.5273 199.692 41.5175 202.467 41.054 205.424C39.1265 204.915 37.1028 204.645 35.0159 204.645C31.4144 204.645 28.001 205.451 24.9458 206.893C22.4241 206.342 19.978 205.588 17.6254 204.649C17.929 201.425 18.5572 198.297 19.4769 195.296ZM18.7518 194.485C19.4813 192.201 20.3769 189.992 21.4243 187.871C14.3574 187.123 8.21889 183.258 4.40568 177.675C3.16307 178.368 1.93361 179.082 0.717773 179.817V193.089C2.59018 195.09 4.63512 196.926 6.82881 198.575C10.5533 196.715 14.5535 195.325 18.7518 194.485ZM7.67741 199.199C11.0579 197.553 14.665 196.301 18.4391 195.503C17.6057 198.328 17.0249 201.262 16.723 204.278C13.5095 202.917 10.4786 201.208 7.67741 199.199ZM6.73621 199.67C9.78266 201.903 13.1022 203.784 16.6352 205.254C16.5335 206.531 16.4817 207.821 16.4817 209.124C16.4817 210.56 16.5447 211.981 16.6681 213.385C13.6352 217.116 11.7144 221.79 11.4118 226.9C8.67008 223.419 4.97353 220.727 0.717773 219.221V203.367C2.62182 201.99 4.63293 200.753 6.73621 199.67ZM5.9071 199.048C4.10663 199.997 2.37381 201.058 0.717773 202.22V194.441C2.33339 196.098 4.06776 197.638 5.9071 199.048ZM30.9678 288.536C30.0514 288.589 29.1281 288.616 28.1984 288.616C22.2869 288.616 16.6302 287.523 11.4189 285.528C15.5725 280.971 21.5523 278.112 28.1983 278.112C29.1358 278.112 30.0601 278.169 30.9678 278.279V288.536ZM101.055 352.186C86.7045 352.186 73.8558 345.745 65.235 335.592C65.7967 334.908 66.3398 334.209 66.8636 333.494H91.4678V322.51C94.3978 323.813 97.6414 324.537 101.054 324.537C109.937 324.537 117.677 319.631 121.718 312.377V347.405C115.482 350.467 108.469 352.186 101.055 352.186ZM30.9678 251.658V257.202C30.0513 257.149 29.1279 257.123 28.1984 257.123C22.5595 257.123 17.1479 258.098 12.1228 259.889C11.1816 259.447 10.2469 258.994 9.31881 258.53C13.4195 254.537 16.0785 249.066 16.4391 242.976C19.9761 247.467 25.1021 250.644 30.9678 251.658ZM28.1984 258.057C23.0085 258.057 18.015 258.899 13.3469 260.455C19.0056 263.035 24.892 265.201 30.9678 266.914V258.137C30.0514 258.084 29.1281 258.057 28.1984 258.057ZM8.59078 259.21C9.35615 259.595 10.126 259.974 10.9003 260.344C7.27171 261.75 3.85681 263.587 0.717773 265.79V263.884C3.65092 262.846 6.31843 261.245 8.59078 259.21ZM64.6266 334.861C64.9924 334.412 65.35 333.956 65.6993 333.494H63.5539C63.9032 333.956 64.2609 334.412 64.6266 334.861ZM30.9678 250.709C25.0067 249.635 19.8532 246.231 16.481 241.473C16.4647 236.511 14.9246 231.909 12.3048 228.111C12.3507 223.096 14.0173 218.469 16.8051 214.729C18.11 225.963 23.2884 236.014 30.9678 243.506V250.709ZM44.9691 207.873C49.1167 209.902 52.556 213.158 54.8145 217.17H43.1626C42.2179 214.669 41.7009 211.957 41.7009 209.125C41.7009 208.897 41.7042 208.671 41.7108 208.445C42.8093 208.291 43.8958 208.1 44.9691 207.873ZM49.2039 192.232C53.3867 193.664 57.8353 194.521 62.4559 194.711C60.1451 192.66 58.0336 190.389 56.1542 187.93C53.5748 188.939 51.2248 190.406 49.2039 192.232ZM57.0736 187.593C59.1014 190.212 61.3993 192.612 63.9254 194.749C64.0877 194.75 64.2503 194.751 64.413 194.751C65.5526 194.751 66.6827 194.71 67.802 194.631C69.8255 192.657 71.6719 190.503 73.3153 188.193C71.9912 187.628 70.6026 187.184 69.1636 186.878H59.6623C58.7794 187.066 57.9153 187.305 57.0736 187.593ZM65.9345 196.357C65.6412 196.135 65.3505 195.909 65.0627 195.681C65.6262 195.673 66.1874 195.656 66.7461 195.629C66.4784 195.875 66.2078 196.117 65.9345 196.357ZM66.7022 196.925C67.2143 196.473 67.7166 196.01 68.2089 195.537C72.4468 195.204 76.5299 194.32 80.3864 192.955C81.5753 194.133 82.6349 195.442 83.5421 196.857C80.3733 198.104 77.3691 199.678 74.5713 201.539C71.791 200.254 69.1573 198.706 66.7022 196.925ZM84.4327 196.518C83.5436 195.105 82.5095 193.792 81.3513 192.602C88.8578 189.762 95.4656 185.089 100.63 179.128C104.284 183.548 107.147 188.647 109.002 194.209C106.417 193.777 103.762 193.553 101.055 193.553C95.2109 193.553 89.6112 194.6 84.4327 196.518ZM110.046 194.396C108.144 188.482 105.127 183.069 101.244 178.405C103.506 175.688 105.474 172.717 107.099 169.541C112.133 171.38 117.014 173.537 121.718 175.987V196.965C121.36 197.224 120.998 197.477 120.633 197.726C117.289 196.226 113.743 195.098 110.046 194.396ZM100.63 177.682C102.78 175.082 104.656 172.247 106.213 169.221C101.427 167.514 96.5049 166.093 91.4678 164.978V169.497C94.8618 171.825 97.9416 174.579 100.63 177.682ZM121.718 174.935C117.142 172.574 112.402 170.489 107.519 168.7C110.61 162.353 112.344 155.223 112.344 147.686C112.344 141.513 111.181 135.613 109.061 130.192C110.88 125.54 111.995 120.534 112.275 115.306C112.443 115.376 112.61 115.447 112.776 115.519C113.904 121.349 117.167 126.417 121.718 129.873V174.935ZM112.318 114.313C112.409 114.351 112.501 114.388 112.592 114.426C112.429 113.305 112.345 112.158 112.345 110.992C112.345 105.758 114.041 100.92 116.912 96.9999C114.775 97.7502 112.567 98.3531 110.303 98.7963C111.631 103.197 112.344 107.864 112.344 112.698C112.344 113.239 112.335 113.777 112.318 114.313ZM109.379 98.9678C110.7 103.311 111.41 107.922 111.41 112.698C111.41 113.116 111.405 113.532 111.394 113.948C106.313 111.996 100.815 110.886 95.0708 110.788C93.9146 109.824 92.7123 108.913 91.4678 108.059V98.7287C94.5654 99.3585 97.7716 99.689 101.055 99.689C103.894 99.689 106.675 99.4418 109.379 98.9678ZM110.023 97.8991C112.785 97.3646 115.461 96.588 118.028 95.592C119.13 94.3045 120.367 93.1369 121.718 92.1113V37.3232C105.272 28.7577 86.6673 23.7772 66.9354 23.4161C68.5717 25.6604 70.0182 28.0522 71.2513 30.568H91.4678V43.5298C92.3762 43.4237 93.3003 43.3691 94.2372 43.3691C107.297 43.3691 117.883 53.9708 117.883 67.0486C117.883 76.0598 112.857 83.8953 105.459 87.897C107.342 91.0166 108.881 94.3683 110.023 97.8991ZM104.626 88.326C106.467 91.3653 107.974 94.6299 109.096 98.0688C106.483 98.5199 103.796 98.755 101.055 98.755C97.7695 98.755 94.563 98.4174 91.4678 97.775V90.5673C92.3762 90.6734 93.3003 90.728 94.2372 90.728C97.9646 90.728 101.49 89.8643 104.626 88.326ZM104.967 87.1006C112.099 83.265 116.949 75.7245 116.949 67.0486C116.949 54.4854 106.78 44.3032 94.2372 44.3032C93.2997 44.3032 92.3755 44.3601 91.4678 44.4706V73.071C96.8653 76.7735 101.468 81.5532 104.967 87.1006ZM30.9678 79.633V89.4337C28.7867 89.0407 26.7137 88.3358 24.7965 87.3668C26.581 84.5738 28.6519 81.9821 30.9678 79.633ZM30.9678 78.3156C28.3185 80.9004 25.9668 83.7896 23.9692 86.9269C17.0106 83.0403 12.3038 75.5954 12.3038 67.0486C12.3038 55.8693 20.3564 46.5754 30.9678 44.6634V78.3156ZM23.4745 87.7207C16.2516 83.6681 11.3698 75.9292 11.3698 67.0486C11.3698 55.3529 19.837 45.6377 30.9678 43.7148V30.568H58.0019C59.2351 28.0522 60.6816 25.6604 62.3179 23.4161C39.8067 23.828 18.7621 30.2521 0.717773 41.1528V88.6601C4.55402 90.0181 7.93588 92.3393 10.5736 95.3335C13.2146 96.4042 15.9749 97.2414 18.829 97.8196C19.9896 94.2514 21.5563 90.8669 23.4745 87.7207ZM19.7537 97.9973C20.8935 94.5228 22.4263 91.2269 24.2994 88.1622C26.3654 89.2159 28.6067 89.9744 30.9678 90.3823V98.6746C30.0514 98.728 29.1281 98.755 28.1984 98.755C25.3156 98.755 22.4933 98.4951 19.7537 97.9973ZM19.4693 98.895C22.2998 99.4165 25.2173 99.689 28.1984 99.689C29.1279 99.689 30.0513 99.6625 30.9678 99.6103V113.081C26.2677 113.474 21.7603 114.547 17.5439 116.2C17.459 115.044 17.4157 113.876 17.4157 112.698C17.4157 107.895 18.1342 103.26 19.4693 98.895ZM18.5472 98.7156C16.2186 98.2389 13.9514 97.5931 11.7591 96.7915C14.7243 100.748 16.4812 105.664 16.4812 110.992C16.4812 113.053 16.2183 115.052 15.7243 116.958C16.0263 116.825 16.33 116.695 16.6352 116.568C16.5335 115.291 16.4817 114.001 16.4817 112.698C16.4817 107.834 17.2041 103.14 18.5472 98.7156ZM16.723 117.544C16.2738 117.734 15.8282 117.931 15.3862 118.135C13.1518 125.216 7.68395 130.858 0.717773 133.324V159.825C2.36635 151.241 8.64397 144.306 16.8475 141.727C17.3446 137.707 18.3382 133.841 19.7649 130.192C18.207 126.208 17.1655 121.964 16.723 117.544ZM17.6254 117.173C21.5743 115.597 25.7867 114.542 30.1781 114.092C26.0188 118.342 22.6425 123.364 20.2827 128.922C18.9191 125.203 18.0107 121.264 17.6254 117.173ZM20.7695 130.192C23.1162 124.326 26.6079 119.044 30.9678 114.621V141.709C29.599 141.282 28.1768 140.977 26.7139 140.806C24.3001 137.565 22.2934 134.001 20.7695 130.192ZM20.2827 131.462C21.6753 134.743 23.422 137.836 25.4746 140.694C24.9665 140.661 24.4541 140.645 23.9377 140.645C21.8241 140.645 19.7753 140.922 17.8256 141.443C18.2834 137.983 19.1166 134.642 20.2827 131.462ZM26.2105 141.691C25.463 141.617 24.7048 141.579 23.9377 141.579C21.776 141.579 19.6847 141.881 17.7038 142.446C17.5135 144.167 17.4157 145.915 17.4157 147.686C17.4157 155.163 19.1566 162.232 22.2545 168.51C25.112 167.478 28.0178 166.547 30.9678 165.722V147.08C29.2521 145.407 27.6612 143.605 26.2105 141.691ZM27.5222 141.86C28.5989 143.224 29.7495 144.527 30.9678 145.763V142.689C29.8545 142.327 28.7035 142.048 27.5222 141.86ZM91.4678 74.2091C96.51 77.7701 100.821 82.2997 104.132 87.5277C101.141 88.9797 97.7839 89.7939 94.2372 89.7939C93.2997 89.7939 92.3755 89.737 91.4678 89.6265V74.2091ZM111.358 114.936C111.129 119.831 110.154 124.53 108.543 128.922C105.735 122.308 101.488 116.454 96.1945 111.755C101.526 111.974 106.629 113.082 111.358 114.936ZM108.057 130.192C105.172 122.981 100.556 116.651 94.725 111.718C94.5626 111.716 94.4 111.715 94.2373 111.715C93.3076 111.715 92.3841 111.742 91.4678 111.796V151.187C98.8424 145.979 104.653 138.699 108.057 130.192ZM91.4678 152.325V164.022C96.6517 165.159 101.715 166.619 106.636 168.38C109.693 162.135 111.41 155.111 111.41 147.686C111.41 141.985 110.398 136.52 108.543 131.462C104.942 139.945 98.9734 147.176 91.4678 152.325ZM15.5471 110.992C15.5471 105.303 13.4621 100.103 10.0159 96.115C6.71598 94.7592 3.60054 93.0453 0.717773 91.0217V127.381C4.69796 123.299 9.39885 119.924 14.6145 117.464C15.2213 115.413 15.5471 113.241 15.5471 110.992ZM0.717773 89.8748C3.09306 91.5922 5.63498 93.0927 8.31459 94.3475C6.13769 92.3161 3.56185 90.708 0.717773 89.6539V89.8748ZM0.717773 40.0628V13.5056C8.44615 7.91796 17.9385 4.62544 28.1984 4.62544C42.5487 4.62544 55.3974 11.0666 64.0182 21.2199C63.6803 21.6313 63.3491 22.0484 63.0248 22.471C40.2712 22.7575 18.9843 29.14 0.717773 40.0628ZM28.1984 3.69141C17.9748 3.69141 8.49873 6.89678 0.717773 12.3587V0.275391H121.718V8.36822C115.461 5.37022 108.454 3.69141 101.055 3.69141C86.4761 3.69141 73.4176 10.2093 64.6266 20.4938C55.8356 10.2093 42.7771 3.69141 28.1984 3.69141ZM101.055 4.62544C86.7045 4.62544 73.8558 11.0666 65.235 21.2199C65.5729 21.6313 65.9041 22.0484 66.2284 22.471C86.2061 22.7226 105.053 27.6736 121.718 36.2709V9.40662C115.482 6.3446 108.469 4.62544 101.055 4.62544ZM64.2165 22.4616C64.3521 22.2905 64.4888 22.1204 64.6266 21.9513C64.7645 22.1204 64.9012 22.2905 65.0367 22.4616C64.9 22.4612 64.7632 22.4609 64.6263 22.4609C64.4897 22.4609 64.3531 22.4612 64.2165 22.4616ZM59.0448 30.568H70.2084C68.9384 28.0398 67.4476 25.642 65.7612 23.4001C65.3833 23.3967 65.005 23.395 64.6263 23.395C64.2478 23.395 63.8697 23.3967 63.492 23.4001C61.8057 25.642 60.3148 28.0398 59.0448 30.568ZM118.588 96.3764C115.274 100.329 113.279 105.427 113.279 110.992C113.279 112.311 113.391 113.604 113.606 114.862C116.468 116.129 119.183 117.669 121.718 119.448V95.0122C120.694 95.5028 119.65 95.958 118.588 96.3764ZM121.718 93.9738C121.191 94.2326 120.658 94.4818 120.12 94.7211C120.63 94.2224 121.163 93.7475 121.718 93.2983V93.9738ZM1.22565 164.324C1.22565 154.283 7.72132 145.764 16.7324 142.747C16.5666 144.371 16.4817 146.019 16.4817 147.686C16.4817 155.275 18.2405 162.453 21.3721 168.833C15.6061 170.966 10.0405 173.513 4.71129 176.438C2.50326 172.931 1.22565 168.777 1.22565 164.324ZM30.9678 166.692C28.1634 167.483 25.3994 168.37 22.6795 169.35C24.224 172.328 26.0769 175.119 28.1958 177.682C29.0785 176.663 30.0034 175.682 30.9678 174.741V166.692ZM5.22687 177.221C10.5263 174.316 16.0608 171.788 21.7947 169.673C23.4064 172.799 25.3511 175.726 27.5818 178.405C25.3893 181.038 23.473 183.911 21.8777 186.977C14.9722 186.355 8.95702 182.638 5.22687 177.221ZM22.8969 187.046C24.3968 184.223 26.1754 181.572 28.1958 179.128C29.0785 180.147 30.0034 181.128 30.9678 182.069V185.959C28.7541 186.68 26.3913 187.069 23.9377 187.069C23.5889 187.069 23.2419 187.061 22.8969 187.046ZM30.9678 180.751C30.2212 179.994 29.5 179.211 28.8057 178.405C29.5 177.599 30.2212 176.816 30.9678 176.059V180.751ZM55.3723 186.878H38.3813C41.4258 188.91 44.7206 190.596 48.2093 191.879C50.3325 189.878 52.8252 188.265 55.5741 187.155C55.5065 187.063 55.4392 186.97 55.3723 186.878ZM93.5877 110.786C92.8965 110.237 92.1896 109.707 91.4678 109.197V110.86C92.1705 110.82 92.8772 110.795 93.5877 110.786ZM91.4678 186.175C94.6279 183.943 97.5009 181.331 100.02 178.405C97.5009 175.479 94.6279 172.867 91.4678 170.635V186.175ZM80.6167 191.879C84.1055 190.596 87.4002 188.91 90.4448 186.878H75.3336C75.1326 187.19 74.928 187.5 74.7201 187.807C76.8919 188.862 78.8782 190.24 80.6167 191.879ZM69.2499 194.505C72.8425 194.137 76.3154 193.364 79.6221 192.232C78.003 190.769 76.1726 189.536 74.1823 188.585C72.6968 190.69 71.0464 192.669 69.2499 194.505ZM41.8368 206.622C42.3963 206.798 42.9464 206.996 43.4863 207.213C42.9139 207.317 42.3378 207.411 41.7583 207.495C41.779 207.202 41.8052 206.911 41.8368 206.622ZM40.9267 206.357C40.8781 206.775 40.8403 207.196 40.8138 207.621C38.9136 207.855 36.9783 207.976 35.015 207.976C32.1232 207.976 29.2924 207.714 26.5449 207.213C29.1626 206.159 32.0216 205.579 35.0159 205.579C37.0605 205.579 39.042 205.849 40.9267 206.357ZM23.6524 207.553C21.5591 207.043 19.5196 206.396 17.5439 205.621C17.459 206.778 17.4157 207.946 17.4157 209.124C17.4157 210.221 17.4532 211.309 17.5269 212.387C19.2816 210.457 21.3504 208.819 23.6524 207.553ZM17.6335 213.684C18.6962 224.754 23.5885 234.704 30.9678 242.189V217.17H42.1668C41.2607 214.659 40.7669 211.949 40.7669 209.125C40.7669 208.938 40.769 208.752 40.7733 208.567C38.8854 208.793 36.9638 208.91 35.015 208.91C31.6023 208.91 28.273 208.553 25.0622 207.874C22.1956 209.276 19.6673 211.264 17.6335 213.684ZM11.3699 228.404C8.74528 224.7 5.0415 221.817 0.717773 220.214V253.79C3.23336 255.309 5.80726 256.742 8.43531 258.083C12.7667 253.983 15.4872 248.193 15.5462 241.766C12.9264 237.967 11.3863 233.365 11.3699 228.404ZM12.3592 229.925C14.1275 232.896 15.2386 236.305 15.4918 239.952C13.7235 236.98 12.6123 233.571 12.3592 229.925ZM0.717773 254.88V262.891C3.29662 261.935 5.65493 260.523 7.69527 258.754C5.3244 257.535 2.99756 256.243 0.717773 254.88ZM121.718 120.595C119.256 118.816 116.616 117.269 113.828 115.987C114.966 121.074 117.806 125.517 121.718 128.686V120.595ZM0.717773 168.822V178.727C1.76629 178.1 2.82475 177.488 3.89288 176.891C2.37126 174.462 1.27761 171.738 0.717773 168.822ZM73.8602 187.411C73.4239 187.22 72.9807 187.042 72.5312 186.878H74.2182C74.1 187.056 73.9807 187.234 73.8602 187.411ZM75.5835 201.992C78.2305 200.279 81.0604 198.826 84.0373 197.667C85.3811 199.97 86.3321 202.532 86.7983 205.259C82.8774 204.634 79.118 203.524 75.5835 201.992ZM84.9231 197.333C86.3296 199.781 87.3117 202.504 87.7687 205.403C87.8813 205.418 87.994 205.433 88.1069 205.448C90.062 204.924 92.117 204.645 94.2372 204.645C96.3574 204.645 98.4125 204.924 100.368 205.448C104.059 204.967 107.615 204.056 110.986 202.768C110.636 200.177 110.076 197.653 109.324 195.213C106.639 194.736 103.876 194.487 101.055 194.487C95.3874 194.487 89.9542 195.491 84.9231 197.333ZM97.1077 205.758C96.1675 205.64 95.2095 205.579 94.2372 205.579C93.2649 205.579 92.3069 205.64 91.3668 205.758C92.3163 205.816 93.2734 205.845 94.2373 205.845C95.2011 205.845 96.1582 205.816 97.1077 205.758ZM88.1731 206.398C90.1592 206.649 92.1831 206.779 94.2373 206.779C96.2914 206.779 98.3153 206.649 100.301 206.398C104.587 207.585 108.365 209.997 111.233 213.236C110.006 227.438 102.48 239.836 91.4678 247.613V217.17H86.6592C87.5652 214.659 88.0591 211.949 88.0591 209.125C88.0591 208.228 88.0093 207.343 87.9124 206.472C87.9991 206.447 88.086 206.422 88.1731 206.398ZM74.4386 217.17C77.1743 212.311 81.6425 208.559 87.0035 206.757C87.0839 207.535 87.1251 208.325 87.1251 209.125C87.1251 211.957 86.608 214.669 85.6634 217.17H74.4386ZM91.4678 251.843V258.083C94.5654 257.453 97.7716 257.123 101.055 257.123C106.694 257.123 112.105 258.098 117.13 259.889C117.976 259.492 118.817 259.086 119.652 258.67C115.58 254.771 112.896 249.428 112.421 243.462C108.083 248.681 101.548 252.003 94.2372 252.003C93.3003 252.003 92.3762 251.949 91.4678 251.843ZM112.35 242.049C108.203 247.53 101.632 251.069 94.2372 251.069C93.2997 251.069 92.3755 251.012 91.4678 250.902V248.751C102.749 241.012 110.558 228.568 112.075 214.243C114.975 217.922 116.764 222.52 116.936 227.529C114.05 231.454 112.345 236.304 112.345 241.552C112.345 241.718 112.347 241.884 112.35 242.049ZM113.292 242.348C113.507 248.615 116.254 254.239 120.541 258.224C120.934 258.025 121.327 257.823 121.718 257.619V223.859C120.283 225.021 118.993 226.354 117.878 227.827C117.882 227.992 117.883 228.158 117.883 228.324C117.883 233.572 116.178 238.422 113.292 242.348ZM113.294 240.703C115.462 237.362 116.778 233.417 116.934 229.174C114.766 232.514 113.45 236.46 113.294 240.703ZM117.808 226.414C118.964 225.023 120.276 223.766 121.718 222.672V199.268C121.388 199.106 121.055 198.947 120.721 198.793C117.998 200.604 115.079 202.144 112.004 203.373C112.229 205.259 112.344 207.178 112.344 209.124C112.344 210.401 112.295 211.667 112.197 212.92C115.354 216.608 117.398 221.28 117.808 226.414ZM111.327 211.958C111.382 211.02 111.41 210.075 111.41 209.124C111.41 207.297 111.306 205.495 111.104 203.723C108.313 204.774 105.397 205.572 102.386 206.088C105.806 207.345 108.856 209.372 111.327 211.958ZM14.2109 118.697C11.9462 124.998 6.98276 130.008 0.717773 132.33V128.733C4.5581 124.63 9.12421 121.216 14.2109 118.697ZM121.29 258.891C121.433 258.818 121.575 258.745 121.718 258.671V259.246C121.574 259.129 121.431 259.011 121.29 258.891ZM120.389 259.347C120.819 259.724 121.262 260.087 121.718 260.433V261.8C120.619 261.273 119.496 260.787 118.353 260.344C119.035 260.017 119.714 259.685 120.389 259.347ZM115.906 260.455C111.238 258.899 106.245 258.057 101.055 258.057C97.7695 258.057 94.563 258.394 91.4678 259.037V268.628C99.9753 266.746 108.154 263.989 115.906 260.455ZM91.4678 269.585C100.436 267.617 109.044 264.683 117.176 260.899C118.73 261.467 120.245 262.115 121.718 262.838V283.835C120.75 284.31 119.764 284.753 118.76 285.162C114.428 280.265 108.101 277.178 101.054 277.178C97.6414 277.178 94.3978 277.902 91.4678 279.204V269.585ZM121.718 310.31C118.134 318.154 110.229 323.603 101.054 323.603C97.6286 323.603 94.3803 322.843 91.4678 321.483V288.59C94.5654 289.22 97.7716 289.55 101.055 289.55C107.205 289.55 113.084 288.39 118.487 286.277C119.779 287.825 120.87 289.548 121.718 291.404V310.31ZM121.718 289.337V284.874C120.955 285.239 120.18 285.585 119.395 285.911C120.265 286.98 121.043 288.126 121.718 289.337ZM117.834 285.528C112.622 287.523 106.966 288.616 101.055 288.616C97.7695 288.616 94.563 288.279 91.4678 287.636V280.231C94.3803 278.871 97.6286 278.112 101.054 278.112C107.7 278.112 113.68 280.971 117.834 285.528ZM111.88 202.416C111.545 200.019 111.034 197.679 110.359 195.409C113.609 196.063 116.738 197.052 119.709 198.34C117.248 199.932 114.628 201.301 111.88 202.416ZM121.618 198.182L121.718 198.23V198.112L121.618 198.182Z" fill="url(#paint0_radial_0_221)"/>
<defs>
<radialGradient id="paint0_radial_0_221" cx="0" cy="0" r="1" gradientUnits="userSpaceOnUse" gradientTransform="translate(61.2178 201.87) rotate(-90) scale(295.246 98.277)">
<stop offset="0.296875" stop-color="#0B1B54"/>
<stop offset="1" stop-color="#0B1B54" stop-opacity="0"/>
</radialGradient>
</defs>
</svg>
