<svg width="122" height="364" viewBox="0 0 122 364" fill="none" xmlns="http://www.w3.org/2000/svg">
<path fill-rule="evenodd" clip-rule="evenodd" d="M0.322266 144.101V112.87L30.5723 86.5593V117.791L0.322266 144.101ZM0.322266 164.671V195.901L30.5723 169.59V138.36L0.322266 164.671ZM0.322266 247.699V216.47L34.3734 186.853H70.2796L35.404 217.187H30.5723V221.389L0.322266 247.699ZM0.322266 268.268V299.501L30.5723 273.19V241.958L0.322266 268.268ZM0.322266 351.298V320.07L30.5723 293.76V324.988L0.322266 351.298ZM9.3671 364H121.322V266.626L91.0723 292.936V333.667H44.2427L9.3671 364ZM91.0723 272.367L121.322 246.057V214.829L91.0723 241.139V272.367ZM121.322 194.26L91.0723 220.57V217.187H59.0532L121.322 163.028V194.26ZM121.322 142.459V111.229L91.0723 137.539V168.769L121.322 142.459ZM121.322 90.6597L91.0723 116.97V85.74L121.322 59.4298V90.6597ZM91.0723 65.1709L121.322 38.8607V7.62873L91.0723 33.9389V65.1709ZM30.5723 30.3333H71.5686L106.444 0H0.322266V92.3004L30.5723 65.9902V30.3333Z" fill="#8C1D1D"/>
</svg>
